<svg id="svg" version="1.1" xmlns="http://www.w3.org/2000/svg" xmlns:xlink="http://www.w3.org/1999/xlink" width="400" height="400" viewBox="0, 0, 400,400"><g id="svgg"><path id="path0" d="M192.088 93.075 C 187.762 93.490,179.836 95.173,174.533 96.802 C 174.093 96.937,173.433 97.107,173.067 97.180 C 172.700 97.253,166.220 98.943,158.667 100.936 C 151.113 102.929,144.693 104.598,144.400 104.645 C 144.107 104.691,143.687 104.802,143.467 104.891 C 142.949 105.100,94.170 117.868,93.467 117.979 C 93.173 118.025,92.753 118.134,92.533 118.221 C 92.172 118.364,78.782 121.881,62.467 126.116 C 55.001 128.055,49.761 130.680,48.335 133.197 C 48.224 133.393,47.683 134.038,47.133 134.632 C 46.583 135.225,46.133 135.784,46.133 135.874 C 46.133 135.964,45.789 136.539,45.368 137.152 C 43.742 139.523,41.768 144.233,41.214 147.067 C 41.128 147.507,40.977 148.167,40.879 148.533 C 40.450 150.129,40.512 248.548,40.943 251.193 C 42.162 258.671,45.852 265.003,51.747 269.733 C 53.369 271.035,59.000 273.150,62.533 273.785 C 63.260 273.916,69.102 275.457,69.600 275.649 C 69.820 275.734,70.244 275.837,70.542 275.878 C 71.104 275.954,73.967 276.724,74.667 276.987 C 74.887 277.070,75.307 277.173,75.600 277.217 C 76.272 277.318,85.327 279.693,85.867 279.910 C 86.087 279.998,86.507 280.107,86.800 280.152 C 87.491 280.257,102.674 284.228,103.200 284.442 C 103.420 284.531,103.840 284.640,104.133 284.685 C 104.427 284.730,114.027 287.235,125.467 290.252 C 136.907 293.269,146.567 295.803,146.933 295.885 C 147.300 295.966,152.160 297.230,157.733 298.695 C 163.307 300.159,168.047 301.400,168.267 301.452 C 168.814 301.582,176.129 303.486,180.581 304.658 C 186.795 306.294,188.198 306.504,195.722 306.923 C 206.730 307.537,210.286 307.054,227.067 302.664 C 232.640 301.206,237.440 299.968,237.733 299.913 C 238.027 299.858,238.447 299.740,238.667 299.650 C 239.120 299.466,243.388 298.359,244.000 298.267 C 244.220 298.234,244.580 298.136,244.800 298.049 C 245.301 297.850,273.053 290.604,273.600 290.529 C 273.820 290.499,274.180 290.402,274.400 290.313 C 274.857 290.130,331.514 275.305,332.533 275.102 C 332.900 275.029,333.800 274.787,334.533 274.565 C 335.267 274.342,336.167 274.101,336.533 274.028 C 344.515 272.447,349.078 269.936,353.061 264.933 C 354.440 263.201,356.800 259.353,356.800 258.837 C 356.800 258.662,356.966 258.282,357.168 257.993 C 357.371 257.703,357.531 257.407,357.525 257.333 C 357.518 257.260,357.738 256.540,358.012 255.733 C 358.287 254.927,358.523 254.207,358.538 254.133 C 359.337 250.097,359.333 250.325,359.333 200.133 C 359.333 159.489,359.267 149.897,358.974 148.267 C 358.468 145.447,357.135 141.532,355.946 139.368 C 355.389 138.355,354.933 137.423,354.933 137.296 C 354.933 137.170,354.843 137.066,354.733 137.065 C 354.623 137.065,354.123 136.435,353.621 135.665 C 352.353 133.722,348.482 130.229,346.257 129.020 C 343.850 127.711,344.497 127.896,319.333 121.341 C 307.453 118.247,297.553 115.643,297.333 115.556 C 297.113 115.468,296.693 115.359,296.400 115.314 C 295.715 115.209,269.332 108.299,268.800 108.086 C 268.580 107.998,268.220 107.901,268.000 107.871 C 267.434 107.793,251.951 103.751,251.467 103.555 C 251.247 103.466,250.887 103.367,250.667 103.336 C 250.112 103.259,239.693 100.548,239.200 100.354 C 238.980 100.267,238.560 100.158,238.267 100.111 C 237.973 100.065,234.553 99.177,230.667 98.139 C 226.780 97.100,223.300 96.188,222.933 96.112 C 222.567 96.035,221.127 95.663,219.733 95.284 C 212.008 93.185,200.516 92.267,192.088 93.075 M211.867 103.165 C 216.443 103.952,334.705 133.492,336.819 134.375 C 343.111 137.006,348.119 143.077,350.591 151.067 L 351.333 153.467 351.333 199.600 L 351.333 245.733 350.703 248.119 C 348.405 256.815,342.609 263.567,335.367 265.982 C 332.408 266.970,214.572 296.263,212.000 296.651 C 204.667 297.757,195.363 297.760,188.073 296.658 C 185.250 296.231,66.739 266.805,64.081 265.871 C 57.369 263.512,51.503 256.462,49.292 248.097 L 48.667 245.733 48.667 199.733 L 48.667 153.733 49.266 151.498 C 51.245 144.124,56.314 137.600,62.267 134.769 C 64.614 133.652,183.922 103.746,188.667 103.085 C 193.187 102.455,193.261 102.451,201.200 102.535 C 207.268 102.600,209.266 102.717,211.867 103.165 M193.467 105.073 C 191.853 105.204,189.333 105.507,187.867 105.748 C 184.290 106.333,66.224 135.850,64.251 136.652 C 58.405 139.028,53.526 145.148,51.670 152.433 L 51.067 154.800 51.067 200.000 L 51.067 245.200 51.670 247.567 C 53.540 254.910,58.957 261.505,64.697 263.429 C 66.221 263.940,183.329 293.316,186.000 293.858 C 191.561 294.985,203.394 295.324,209.741 294.538 C 214.910 293.897,333.806 264.275,336.558 262.942 C 343.127 259.760,348.025 252.298,348.805 244.283 C 349.159 240.639,349.143 159.205,348.787 155.736 C 347.929 147.366,342.766 139.643,336.128 136.798 C 333.296 135.584,216.349 106.357,211.319 105.606 C 207.013 104.964,198.102 104.697,193.467 105.073 M196.582 124.324 C 196.409 124.498,196.267 124.796,196.267 124.987 C 196.267 125.562,196.878 125.378,197.481 124.622 C 198.414 123.452,199.172 123.951,198.388 125.220 C 197.500 126.656,198.121 127.011,199.101 125.627 C 199.965 124.406,199.980 124.399,200.659 124.895 C 201.132 125.241,201.122 125.296,200.420 126.216 C 199.295 127.691,199.863 128.098,201.078 126.688 C 201.958 125.666,202.125 125.577,202.643 125.854 L 203.223 126.165 202.412 127.268 C 201.514 128.489,201.423 128.800,201.964 128.800 C 202.164 128.800,202.660 128.320,203.067 127.733 C 203.855 126.596,203.935 126.549,204.493 126.903 C 204.777 127.083,204.677 127.374,204.021 128.280 C 203.423 129.105,203.271 129.509,203.479 129.714 C 203.773 130.003,203.793 129.985,205.047 128.290 C 205.361 127.866,205.675 127.705,205.968 127.817 C 206.355 127.966,206.308 128.132,205.606 129.101 C 204.799 130.215,204.581 130.933,205.050 130.933 C 205.188 130.933,205.688 130.393,206.162 129.733 C 207.501 127.869,208.311 128.428,207.086 130.370 C 206.325 131.575,206.234 132.000,206.735 132.000 C 206.920 132.000,207.397 131.460,207.795 130.800 C 208.461 129.699,208.996 129.352,209.404 129.759 C 209.491 129.847,209.211 130.490,208.782 131.189 C 207.934 132.566,207.814 133.070,208.333 133.061 C 208.517 133.058,209.021 132.458,209.455 131.728 C 210.293 130.316,210.337 130.283,210.890 130.634 C 211.172 130.813,211.074 131.164,210.423 132.319 C 209.689 133.619,209.604 134.133,210.122 134.133 C 210.213 134.133,210.638 133.533,211.067 132.800 C 211.495 132.067,211.993 131.467,212.174 131.467 C 212.861 131.467,212.810 132.058,212.013 133.354 C 211.558 134.092,211.260 134.815,211.350 134.961 C 211.586 135.341,212.120 134.831,212.926 133.454 C 213.387 132.668,213.739 132.337,214.005 132.439 C 214.569 132.655,214.503 132.954,213.600 134.267 C 212.818 135.404,212.571 136.267,213.029 136.267 C 213.155 136.267,213.696 135.607,214.232 134.800 C 215.228 133.300,215.369 133.194,215.913 133.541 C 216.132 133.680,215.910 134.211,215.180 135.296 C 214.233 136.705,214.066 137.333,214.637 137.333 C 214.751 137.333,215.238 136.724,215.721 135.979 C 216.654 134.540,217.195 134.155,217.649 134.609 C 217.844 134.804,217.596 135.352,216.831 136.421 C 215.643 138.080,215.527 138.400,216.116 138.400 C 216.327 138.400,217.002 137.684,217.616 136.808 C 218.572 135.445,218.804 135.255,219.233 135.484 C 219.876 135.829,219.906 135.715,218.672 137.625 C 217.708 139.115,217.541 139.733,218.100 139.733 C 218.211 139.733,218.803 138.948,219.414 137.989 C 220.408 136.430,220.584 136.275,221.063 136.531 C 221.760 136.904,221.788 136.803,220.412 138.854 C 219.327 140.471,219.138 141.067,219.710 141.067 C 219.826 141.067,220.482 140.224,221.167 139.194 C 222.271 137.533,222.472 137.353,222.940 137.603 C 223.618 137.966,223.662 137.815,222.238 140.016 C 221.350 141.389,221.090 141.997,221.300 142.207 C 221.460 142.367,221.632 142.446,221.682 142.382 C 221.732 142.319,222.343 141.397,223.039 140.334 C 224.318 138.384,224.571 138.257,225.551 139.076 C 225.598 139.115,225.036 139.964,224.303 140.962 C 223.077 142.632,222.863 143.200,223.459 143.200 C 223.584 143.200,224.243 142.420,224.923 141.467 C 226.161 139.733,226.467 139.531,227.181 139.983 C 227.489 140.178,227.297 140.609,226.181 142.222 C 224.676 144.399,224.618 144.533,225.177 144.533 C 225.384 144.533,226.124 143.723,226.821 142.733 C 227.518 141.743,228.128 140.884,228.177 140.823 C 228.225 140.763,228.567 140.851,228.937 141.020 L 229.609 141.326 228.138 143.316 C 227.329 144.410,226.667 145.431,226.667 145.586 C 226.667 146.347,227.501 145.679,228.650 143.997 C 230.322 141.549,229.975 141.578,233.490 143.596 L 236.569 145.364 243.418 143.735 C 247.185 142.839,250.711 141.988,251.255 141.846 C 252.104 141.622,252.365 141.352,253.110 139.926 C 256.926 132.621,264.140 130.530,268.945 135.335 L 270.613 137.003 271.928 136.558 C 272.651 136.313,273.767 135.727,274.407 135.256 C 275.779 134.248,275.971 134.224,276.897 134.953 C 278.586 136.281,277.060 138.471,274.621 138.219 C 272.627 138.013,270.933 138.828,270.933 139.992 C 270.933 146.259,265.923 150.306,259.684 149.078 C 257.948 148.737,254.880 147.476,254.127 146.794 C 253.677 146.387,236.533 149.930,236.533 150.430 C 236.533 150.944,249.406 161.362,249.829 161.191 C 257.907 157.914,267.284 166.733,263.648 174.187 C 259.137 183.436,246.755 177.456,247.239 166.262 L 247.333 164.076 240.400 158.672 C 236.587 155.699,232.926 152.819,232.265 152.272 C 231.443 151.592,230.937 151.345,230.665 151.490 C 230.446 151.607,224.747 152.922,218.000 154.412 C 211.253 155.901,203.221 157.708,200.150 158.427 C 192.896 160.124,191.025 160.093,188.696 158.235 C 187.352 157.162,187.457 156.994,189.800 156.469 C 197.849 154.667,226.130 147.832,226.131 147.689 C 226.136 147.293,221.062 143.635,208.074 134.668 C 193.427 124.557,193.882 124.950,195.867 124.115 C 196.750 123.743,197.070 123.837,196.582 124.324 M260.039 136.538 C 255.145 138.759,253.870 143.956,257.733 145.937 C 262.200 148.228,268.609 144.804,268.653 140.103 C 268.684 136.836,263.820 134.823,260.039 136.538 M134.308 148.958 C 134.871 149.819,134.809 150.927,134.045 153.646 L 133.395 155.959 134.447 155.411 C 135.649 154.784,137.726 154.871,138.829 155.595 C 139.951 156.329,139.921 157.115,138.574 162.400 C 137.107 168.155,137.080 168.460,138.020 168.695 C 139.871 169.160,141.167 167.269,142.245 162.533 C 143.492 157.052,146.292 154.518,150.375 155.175 C 156.509 156.163,153.446 166.204,147.000 166.240 C 145.370 166.249,145.163 166.690,146.270 167.798 C 148.506 170.033,153.216 168.647,154.640 165.335 C 155.623 163.051,156.739 164.203,155.841 166.575 C 153.907 171.687,145.275 173.328,142.755 169.063 C 142.166 168.065,142.152 168.068,141.277 169.333 C 140.226 170.853,138.699 171.552,136.742 171.411 C 133.443 171.172,133.000 169.288,134.815 163.200 C 136.604 157.201,136.617 157.013,135.203 157.599 C 133.404 158.344,132.035 160.896,130.526 166.316 C 129.092 171.466,129.091 171.467,128.492 171.467 C 127.622 171.467,126.401 170.043,126.394 169.021 C 126.388 168.070,131.652 148.612,132.057 148.086 C 132.407 147.633,133.791 148.170,134.308 148.958 M128.345 148.916 C 128.917 149.175,129.957 151.114,129.776 151.584 C 129.692 151.804,128.685 151.975,126.780 152.092 C 125.202 152.188,123.881 152.297,123.846 152.334 C 123.810 152.370,122.648 156.600,121.263 161.733 C 118.461 172.125,118.469 172.110,116.798 170.439 C 115.662 169.303,115.722 168.808,118.000 160.409 C 119.100 156.354,120.000 152.905,120.000 152.746 C 120.000 152.549,119.390 152.507,118.108 152.615 C 115.916 152.798,115.206 152.364,114.699 150.526 C 114.303 149.092,114.358 149.067,117.867 149.067 C 119.609 149.067,121.091 148.977,121.159 148.867 C 121.326 148.598,127.740 148.642,128.345 148.916 M147.940 157.533 C 147.182 158.398,145.600 162.451,145.600 163.529 C 145.600 164.112,148.017 163.551,148.820 162.781 C 149.628 162.007,150.667 159.636,150.667 158.565 C 150.667 157.267,148.795 156.559,147.940 157.533 M252.004 163.470 C 247.458 164.553,249.658 172.887,255.018 174.892 C 260.428 176.916,263.341 173.628,260.861 168.297 C 259.283 164.903,255.239 162.699,252.004 163.470 M165.867 178.279 C 167.247 178.977,168.533 181.010,168.533 182.493 C 168.533 182.846,167.270 187.610,165.726 193.080 C 162.541 204.361,162.629 203.699,164.438 202.797 C 167.270 201.386,169.426 198.281,170.657 193.838 C 171.392 191.185,171.806 191.019,174.000 192.491 C 178.560 195.552,175.284 203.349,168.600 205.346 L 167.467 205.684 167.476 207.042 C 167.512 212.256,170.540 217.333,173.613 217.333 C 176.409 217.333,179.527 213.061,180.297 208.172 C 182.175 196.250,187.711 190.424,196.048 191.594 C 200.949 192.282,202.551 194.000,202.513 198.527 C 202.452 205.860,196.397 212.400,189.667 212.400 C 186.695 212.400,186.685 212.407,187.321 213.929 C 189.282 218.623,199.111 218.499,202.726 213.733 C 204.580 211.290,205.168 209.205,206.525 200.263 C 208.086 189.974,207.821 190.710,209.780 191.242 C 213.822 192.339,213.902 193.009,211.727 207.506 C 210.844 213.393,210.168 218.257,210.226 218.315 C 210.401 218.490,217.742 203.535,219.150 200.133 C 219.878 198.373,220.983 195.590,221.605 193.948 C 222.228 192.307,222.920 190.893,223.143 190.807 C 224.193 190.405,226.268 192.657,226.770 194.743 C 227.548 197.979,215.385 218.880,211.083 221.698 C 208.430 223.436,204.483 221.727,204.072 218.663 L 203.932 217.618 202.604 218.780 C 196.403 224.204,185.033 223.323,181.548 217.148 L 180.748 215.731 179.751 217.266 C 177.479 220.762,175.035 222.228,171.467 222.237 C 165.914 222.249,163.070 218.498,162.053 209.820 L 161.733 207.092 159.632 214.476 C 158.476 218.537,157.388 221.977,157.214 222.122 C 156.634 222.603,154.867 221.871,153.635 220.639 L 152.469 219.473 151.456 220.275 C 147.905 223.087,141.401 223.020,139.710 220.154 L 139.154 219.211 138.310 220.097 C 136.564 221.931,131.665 222.714,129.323 221.533 C 121.946 217.813,126.745 196.739,135.967 192.362 C 139.258 190.800,143.483 191.193,144.788 193.182 L 145.265 193.909 145.451 193.154 C 146.317 189.633,150.670 191.231,150.662 195.067 C 150.658 196.833,150.228 198.582,147.807 206.667 C 145.079 215.780,145.057 217.333,147.660 217.333 C 151.683 217.333,152.614 215.391,158.435 194.857 C 163.807 175.911,163.322 176.992,165.867 178.279 M235.067 178.904 C 237.982 180.250,238.450 182.143,236.902 186.327 C 235.537 190.019,235.111 190.244,232.589 188.609 C 230.134 187.017,229.905 185.201,231.609 180.867 C 232.703 178.086,232.968 177.935,235.067 178.904 M114.599 179.610 C 116.398 180.362,117.582 182.076,117.594 183.949 C 117.597 184.435,115.742 191.747,113.471 200.198 C 111.200 208.650,109.395 215.617,109.460 215.682 C 109.525 215.747,110.873 215.664,112.455 215.499 C 119.057 214.810,121.599 215.798,122.704 219.485 C 123.229 221.238,123.222 221.241,118.089 221.426 C 103.532 221.950,104.743 221.954,103.831 221.375 C 101.253 219.740,100.164 215.762,102.227 215.516 C 102.678 215.462,102.933 215.269,102.933 214.982 C 102.933 214.512,112.215 179.766,112.437 179.407 C 112.639 179.080,113.531 179.164,114.599 179.610 M72.603 194.355 C 74.160 196.948,77.318 199.143,80.296 199.701 C 81.544 199.936,81.523 199.952,79.067 200.659 C 75.056 201.812,72.330 204.756,71.218 209.135 L 70.740 211.017 70.544 209.713 C 69.819 204.877,66.391 201.545,60.667 200.114 C 59.906 199.924,59.932 199.904,61.186 199.705 C 65.628 199.001,69.506 195.201,70.451 190.626 L 70.768 189.093 71.253 191.005 C 71.520 192.056,72.128 193.564,72.603 194.355 M330.518 193.569 C 332.237 196.963,336.239 199.733,339.420 199.733 C 340.719 199.733,340.289 200.034,338.611 200.299 C 334.031 201.023,330.149 205.037,329.359 209.867 L 329.163 211.067 328.817 209.467 C 327.829 204.902,323.850 200.892,319.765 200.344 C 318.330 200.151,318.368 199.839,319.853 199.616 C 323.900 199.009,327.872 194.953,328.821 190.459 L 329.143 188.933 329.480 190.560 C 329.665 191.454,330.132 192.808,330.518 193.569 M253.188 191.590 C 257.891 192.211,259.733 194.097,259.733 198.291 C 259.733 205.632,253.494 212.411,246.755 212.392 L 244.020 212.385 244.181 213.059 C 244.903 216.086,246.937 217.200,251.739 217.200 C 257.708 217.200,260.521 214.730,262.523 207.733 C 263.469 204.424,267.437 192.287,267.784 191.638 C 268.356 190.569,271.409 191.576,271.951 193.013 C 272.757 195.147,272.558 196.505,270.383 203.726 C 267.494 213.314,267.313 216.125,269.476 217.827 C 271.332 219.287,274.127 215.968,275.730 210.400 C 276.996 206.005,281.636 191.878,281.930 191.523 C 282.348 191.020,284.125 191.258,285.044 191.940 C 287.056 193.433,286.887 195.611,284.016 205.200 C 280.705 216.258,280.621 218.135,283.441 218.132 C 286.662 218.129,288.150 215.425,292.535 201.600 C 296.258 189.866,295.854 190.575,298.243 191.573 C 300.474 192.505,300.413 194.286,297.835 203.467 C 295.064 213.333,293.613 216.744,291.089 219.315 C 286.678 223.810,278.069 223.244,275.893 218.316 C 275.806 218.118,275.578 218.249,275.282 218.667 C 274.131 220.294,273.176 220.986,271.292 221.556 C 266.740 222.933,263.705 221.770,262.382 218.142 L 261.821 216.605 260.618 217.891 C 254.634 224.288,241.863 223.682,238.481 216.841 L 237.908 215.681 236.806 217.426 C 233.145 223.222,225.740 224.134,223.146 219.108 C 221.473 215.865,222.097 212.582,227.821 194.533 L 228.667 191.867 229.936 191.884 C 234.441 191.944,234.581 194.687,230.717 207.200 C 228.470 214.476,228.274 215.598,229.069 216.609 C 231.422 219.600,236.420 214.512,237.477 208.050 C 239.002 198.716,243.194 192.593,248.812 191.491 C 249.465 191.363,250.060 191.246,250.133 191.231 C 250.207 191.217,251.581 191.378,253.188 191.590 M191.599 196.091 C 190.158 197.596,187.201 205.195,187.200 207.400 C 187.200 207.886,190.187 207.829,191.409 207.320 C 194.766 205.919,198.039 198.687,196.384 196.324 C 195.167 194.587,193.136 194.488,191.599 196.091 M249.081 195.629 C 247.718 196.776,244.267 205.278,244.267 207.488 C 244.267 208.052,247.605 207.745,248.993 207.054 C 251.964 205.573,254.888 198.940,253.616 196.563 C 252.760 194.963,250.440 194.485,249.081 195.629 M139.333 195.958 C 133.680 199.420,129.652 216.104,133.992 218.081 C 135.807 218.908,138.608 215.467,139.811 210.933 C 140.025 210.127,140.745 207.727,141.410 205.600 C 144.079 197.069,143.315 193.521,139.333 195.958 M182.800 232.506 C 185.131 233.585,186.069 235.339,186.315 239.077 L 186.480 241.600 184.340 241.600 L 182.200 241.600 182.079 239.293 C 181.941 236.665,181.489 236.000,179.837 236.000 C 177.857 236.000,177.867 235.953,177.867 246.000 C 177.867 256.047,177.857 256.000,179.837 256.000 C 181.601 256.000,181.970 255.368,182.089 252.153 L 182.195 249.312 184.231 249.389 L 186.267 249.467 186.231 252.424 C 186.167 257.835,184.342 259.980,179.791 259.994 C 176.829 260.003,175.237 259.156,174.041 256.933 C 173.483 255.896,173.467 255.592,173.467 246.000 C 173.467 235.150,173.480 235.059,175.243 233.414 C 176.805 231.957,180.624 231.498,182.800 232.506 M200.936 232.497 C 202.238 233.089,203.552 234.534,204.038 235.910 C 204.560 237.386,204.560 254.614,204.038 256.090 C 202.091 261.600,193.251 261.398,191.568 255.805 C 191.104 254.263,191.039 238.075,191.490 236.400 C 192.478 232.733,197.179 230.791,200.936 232.497 M102.133 238.133 L 102.133 244.000 104.533 244.000 L 106.933 244.000 106.933 238.133 L 106.933 232.267 109.200 232.267 L 111.467 232.267 111.467 246.000 L 111.467 259.733 109.200 259.733 L 106.933 259.733 106.933 253.867 L 106.933 248.000 104.533 248.000 L 102.133 248.000 102.133 253.867 L 102.133 259.733 99.867 259.733 L 97.600 259.733 97.600 246.000 L 97.600 232.267 99.867 232.267 L 102.133 232.267 102.133 238.133 M127.042 233.000 C 127.368 234.590,131.200 258.780,131.200 259.252 C 131.200 259.710,131.006 259.748,129.007 259.677 L 126.813 259.600 126.639 258.533 C 126.544 257.947,126.383 256.897,126.283 256.200 L 126.101 254.933 123.488 254.933 L 120.876 254.933 120.548 257.333 L 120.220 259.733 118.135 259.733 C 116.286 259.733,116.062 259.680,116.156 259.267 C 116.215 259.010,117.164 253.100,118.264 246.133 C 119.365 239.167,120.328 233.197,120.405 232.867 C 120.539 232.286,120.645 232.267,123.717 232.267 L 126.891 232.267 127.042 233.000 M140.533 246.000 L 140.533 259.733 138.267 259.733 L 136.000 259.733 136.000 246.000 L 136.000 232.267 138.267 232.267 L 140.533 232.267 140.533 246.000 M155.594 232.564 C 159.571 233.668,160.851 242.776,157.428 245.611 L 156.651 246.253 157.508 247.006 C 158.845 248.180,159.149 249.440,159.292 254.400 C 159.362 256.820,159.503 259.010,159.605 259.267 C 159.773 259.689,159.574 259.733,157.500 259.733 C 154.759 259.733,154.992 260.203,154.854 254.400 C 154.728 249.116,154.635 248.929,151.980 248.615 L 150.667 248.459 150.667 254.096 L 150.667 259.733 148.400 259.733 L 146.133 259.733 146.133 246.000 L 146.133 232.267 150.333 232.268 C 152.643 232.269,155.011 232.402,155.594 232.564 M216.084 232.867 C 216.162 233.197,216.862 237.410,217.639 242.230 C 218.615 248.285,219.107 250.757,219.232 250.230 C 219.331 249.810,219.987 245.597,220.690 240.867 L 221.969 232.267 224.984 232.267 L 228.000 232.267 228.000 246.000 L 228.000 259.733 226.003 259.733 L 224.007 259.733 223.937 250.467 L 223.867 241.200 222.576 249.867 C 221.865 254.633,221.222 258.803,221.147 259.133 C 221.018 259.693,220.867 259.733,218.929 259.733 L 216.848 259.733 216.546 257.933 C 216.380 256.943,215.722 253.073,215.083 249.333 L 213.923 242.533 213.895 251.133 L 213.867 259.733 211.867 259.733 L 209.867 259.733 209.867 246.000 L 209.867 232.267 212.904 232.267 C 215.835 232.267,215.947 232.288,216.084 232.867 M243.752 233.000 C 245.864 234.070,246.671 235.762,246.863 239.525 C 247.220 246.521,245.575 249.072,240.425 249.507 L 238.400 249.678 238.400 254.706 L 238.400 259.733 236.133 259.733 L 233.867 259.733 233.867 246.000 L 233.867 232.267 238.086 232.267 C 242.159 232.267,242.354 232.292,243.752 233.000 M263.240 245.333 C 264.374 252.447,265.366 258.597,265.444 259.000 L 265.587 259.733 263.345 259.733 C 260.822 259.733,260.963 259.859,260.667 257.333 C 260.364 254.753,260.560 254.905,257.649 254.991 L 255.073 255.067 254.875 256.533 C 254.766 257.340,254.609 258.390,254.526 258.867 L 254.376 259.733 252.388 259.733 C 250.839 259.733,250.400 259.649,250.400 259.351 C 250.400 259.034,254.046 235.939,254.540 233.125 L 254.694 232.250 257.936 232.325 L 261.178 232.400 263.240 245.333 M276.084 233.533 C 276.288 234.230,277.222 237.680,278.161 241.200 L 279.867 247.600 279.937 239.933 L 280.008 232.267 282.004 232.267 L 284.000 232.267 284.000 246.010 L 284.000 259.754 281.697 259.677 L 279.394 259.600 276.830 250.081 L 274.267 240.562 274.197 250.148 L 274.127 259.733 272.130 259.733 L 270.133 259.733 270.133 246.000 L 270.133 232.267 272.923 232.267 L 275.713 232.267 276.084 233.533 M294.216 236.867 C 294.889 239.397,295.582 242.044,295.756 242.751 C 296.190 244.515,296.313 244.269,297.723 238.800 C 298.404 236.160,299.084 233.610,299.235 233.133 L 299.508 232.267 301.649 232.267 C 303.469 232.267,303.767 232.328,303.633 232.678 C 303.546 232.904,302.333 236.938,300.937 241.642 L 298.400 250.195 298.400 254.964 L 298.400 259.733 296.133 259.733 L 293.867 259.733 293.867 255.310 L 293.867 250.887 291.170 241.777 C 289.686 236.766,288.419 232.577,288.354 232.467 C 288.289 232.357,289.305 232.267,290.614 232.267 L 292.992 232.267 294.216 236.867 M196.286 236.703 C 195.426 237.796,195.426 254.204,196.286 255.297 C 196.962 256.157,198.306 256.245,199.237 255.490 L 199.867 254.980 199.867 246.000 L 199.867 237.020 199.237 236.510 C 198.306 235.755,196.962 235.843,196.286 236.703 M150.667 240.400 L 150.667 244.533 151.964 244.533 C 153.925 244.533,154.578 243.895,154.808 241.755 C 155.237 237.748,154.515 236.267,152.133 236.267 L 150.667 236.267 150.667 240.400 M238.400 240.800 L 238.400 245.333 239.816 245.333 C 242.182 245.333,242.267 245.180,242.267 240.931 C 242.267 236.632,242.066 236.267,239.704 236.267 L 238.400 236.267 238.400 240.800 M257.631 238.060 C 257.614 238.240,257.180 241.153,256.667 244.533 C 256.153 247.914,255.733 250.737,255.733 250.807 C 255.733 250.876,256.636 250.933,257.738 250.933 C 259.680 250.933,259.739 250.914,259.610 250.333 C 259.536 250.003,259.111 247.213,258.664 244.133 C 257.823 238.331,257.683 237.508,257.631 238.060 M123.397 238.667 C 123.243 239.072,121.599 249.986,121.600 250.600 C 121.600 250.835,122.151 250.933,123.467 250.933 C 125.709 250.933,125.595 251.626,124.532 244.466 C 123.568 237.980,123.599 238.136,123.397 238.667 " stroke="none" fill="#db5444" fill-rule="evenodd"></path><path id="path1" d="M192.667 102.705 C 187.737 103.092,185.746 103.564,124.133 118.956 C 67.077 133.210,64.288 133.934,61.901 135.120 C 55.047 138.525,49.533 146.939,48.869 155.006 C 48.758 156.359,48.728 177.507,48.802 202.000 L 48.938 246.533 49.554 248.667 C 51.895 256.778,57.647 263.484,64.197 265.738 C 66.561 266.552,184.244 295.858,187.222 296.375 C 193.549 297.473,203.741 297.597,210.933 296.663 C 217.070 295.866,334.948 266.200,338.000 264.684 C 343.627 261.890,348.504 255.620,350.460 248.667 L 351.060 246.533 351.197 201.333 C 351.301 166.913,351.257 155.593,351.012 153.867 C 349.842 145.599,343.677 137.203,336.751 134.445 C 334.797 133.667,216.341 104.095,212.651 103.464 C 206.947 102.489,199.179 102.194,192.667 102.705 M211.733 105.456 C 214.048 105.828,327.111 133.909,330.932 135.061 C 331.593 135.260,333.159 135.729,334.413 136.103 C 340.738 137.991,346.290 144.332,348.330 152.000 L 348.933 154.267 348.933 200.267 L 348.933 246.267 348.187 248.650 C 346.046 255.483,341.055 261.416,335.751 263.433 C 333.137 264.427,214.619 294.004,210.933 294.582 C 206.374 295.298,193.222 295.233,188.667 294.473 C 185.327 293.916,67.142 264.443,64.375 263.477 C 58.121 261.294,52.307 253.432,51.201 245.660 C 50.994 244.209,50.931 230.357,50.987 198.800 L 51.068 154.000 51.670 151.867 C 53.665 144.798,58.618 138.760,64.239 136.544 C 66.019 135.843,185.428 105.988,188.000 105.602 C 192.297 104.956,194.529 104.844,201.600 104.924 C 206.844 104.983,209.731 105.134,211.733 105.456 M261.845 132.817 C 258.880 133.284,255.295 136.277,253.242 140.000 L 252.285 141.733 244.476 143.605 L 236.667 145.477 236.450 147.699 C 236.331 148.922,236.276 149.965,236.329 150.018 C 236.381 150.070,240.246 149.259,244.917 148.216 L 253.410 146.319 254.940 147.160 C 262.757 151.458,269.830 148.697,270.606 141.046 C 270.848 138.657,271.535 138.133,274.433 138.133 C 276.411 138.133,277.189 137.714,277.478 136.490 C 277.858 134.882,276.023 134.179,274.494 135.346 C 271.828 137.379,270.696 137.434,269.031 135.612 C 266.979 133.367,264.492 132.400,261.845 132.817 M266.332 136.498 C 269.558 138.145,269.652 141.630,266.547 144.493 C 261.611 149.042,253.511 146.367,255.606 140.880 C 257.188 136.737,262.526 134.557,266.332 136.498 M231.219 146.569 C 229.613 148.612,232.182 151.043,234.012 149.212 C 234.372 148.852,234.667 148.247,234.667 147.867 C 234.667 146.127,232.275 145.227,231.219 146.569 M233.352 147.356 C 233.826 147.926,233.349 148.667,232.508 148.667 C 231.855 148.667,231.552 148.058,231.836 147.318 C 232.032 146.806,232.914 146.828,233.352 147.356 M129.247 158.333 C 126.038 169.973,126.163 169.277,127.090 170.380 C 128.516 172.073,128.867 171.697,130.124 167.133 C 131.889 160.720,133.547 157.775,135.683 157.257 C 136.684 157.015,136.643 157.575,135.342 161.895 C 133.046 169.522,133.419 171.271,137.333 171.241 C 139.040 171.228,140.115 170.626,141.316 169.010 L 142.233 167.778 142.602 168.488 C 145.272 173.635,156.000 171.084,156.000 165.302 C 156.000 163.849,155.417 163.970,154.656 165.580 C 153.402 168.230,151.168 169.293,148.000 168.745 C 145.630 168.335,144.309 165.915,146.554 166.093 C 151.508 166.487,156.144 158.199,152.254 155.902 C 148.031 153.407,143.705 156.509,142.263 163.067 C 141.251 167.669,138.544 170.529,137.336 168.272 C 137.020 167.682,137.008 167.746,138.435 162.409 C 139.964 156.693,139.878 155.934,137.633 155.342 C 136.163 154.954,135.134 155.099,133.977 155.857 C 133.633 156.083,133.303 156.267,133.244 156.267 C 133.185 156.267,133.480 155.037,133.900 153.533 C 134.852 150.124,134.851 149.743,133.887 148.779 C 132.279 147.171,132.382 146.958,129.247 158.333 M210.400 151.718 C 201.967 153.740,193.409 155.783,191.383 156.257 C 187.181 157.242,187.107 157.394,190.109 158.868 C 192.113 159.852,193.937 159.788,199.016 158.555 C 201.188 158.028,209.168 156.214,216.749 154.525 C 224.330 152.836,230.623 151.427,230.732 151.393 C 231.103 151.281,226.717 148.000,226.224 148.021 C 225.954 148.032,218.833 149.696,210.400 151.718 M120.375 149.125 C 119.802 149.231,118.313 149.306,117.067 149.291 L 114.800 149.265 114.844 150.138 C 114.932 151.917,115.647 152.404,118.122 152.371 C 120.222 152.343,120.303 152.364,120.163 152.904 C 120.083 153.214,119.095 156.908,117.968 161.113 C 115.691 169.608,115.674 169.917,117.423 170.764 C 118.573 171.321,118.362 171.837,121.063 161.865 C 122.393 156.952,123.543 152.734,123.618 152.491 C 123.731 152.123,124.226 152.033,126.522 151.957 C 129.588 151.857,129.741 151.797,129.488 150.789 C 129.009 148.881,125.337 148.210,120.375 149.125 M150.158 157.299 C 151.916 158.724,149.627 163.412,146.952 163.863 C 145.413 164.124,145.308 163.953,145.849 162.063 C 147.180 157.420,148.502 155.958,150.158 157.299 M163.097 179.133 C 162.870 179.830,160.830 186.941,158.564 194.936 C 152.708 215.596,151.879 217.339,147.885 217.399 C 144.863 217.445,144.861 216.172,147.869 205.984 C 150.197 198.097,150.763 195.615,150.505 194.418 C 149.822 191.257,146.603 190.180,145.727 192.820 L 145.277 194.174 144.631 193.223 C 143.289 191.249,139.022 190.981,135.598 192.656 C 127.664 196.538,122.685 215.592,128.283 220.650 C 129.889 222.100,132.771 222.516,134.990 221.617 C 135.325 221.481,135.957 221.293,136.394 221.198 C 136.831 221.104,137.627 220.565,138.163 220.001 L 139.138 218.976 139.769 219.955 C 141.636 222.850,148.126 222.931,151.434 220.100 C 152.053 219.570,152.592 219.181,152.632 219.235 C 152.673 219.289,152.968 219.713,153.288 220.177 C 153.902 221.066,155.780 222.133,156.732 222.133 C 157.183 222.133,157.376 221.854,157.698 220.733 C 157.919 219.963,158.901 216.513,159.880 213.067 C 161.878 206.027,162.129 205.481,162.143 208.147 C 162.162 212.100,163.281 216.373,164.924 218.769 C 168.583 224.106,176.900 222.915,179.997 216.612 L 180.661 215.260 181.410 216.630 C 184.996 223.195,196.567 224.213,202.673 218.501 L 203.937 217.319 204.127 218.582 C 204.501 221.076,207.155 222.755,209.709 222.112 C 213.041 221.273,221.618 208.472,226.288 197.367 C 227.108 195.418,226.423 192.921,224.708 191.614 C 223.190 190.456,222.993 190.646,221.412 194.801 C 218.538 202.352,210.467 219.356,209.985 218.874 C 209.932 218.821,210.666 213.622,211.616 207.322 C 213.540 194.572,213.546 194.348,212.036 192.763 C 210.995 191.670,208.784 190.843,208.273 191.354 C 208.127 191.499,207.466 195.214,206.803 199.609 C 205.224 210.079,204.680 211.816,202.139 214.503 C 197.774 219.117,188.353 218.318,186.967 213.215 C 186.612 211.910,186.535 211.963,188.350 212.258 C 194.982 213.338,202.406 206.107,202.450 198.524 C 202.475 194.229,200.706 192.327,196.122 191.717 C 187.909 190.624,182.973 195.544,180.662 207.127 C 178.516 217.880,172.408 220.962,168.738 213.145 C 166.882 209.193,166.892 205.887,168.762 205.187 C 175.394 202.703,178.258 195.897,174.029 192.671 C 172.080 191.184,171.531 191.478,170.550 194.533 C 169.475 197.882,168.891 199.012,167.344 200.732 C 166.252 201.946,163.061 203.950,162.736 203.625 C 162.675 203.564,163.895 199.046,165.446 193.584 C 168.305 183.520,168.601 181.946,167.890 180.587 C 167.119 179.110,165.260 177.867,163.823 177.867 C 163.651 177.867,163.324 178.437,163.097 179.133 M232.698 178.615 C 229.564 183.687,230.527 189.046,234.597 189.170 L 235.590 189.200 236.503 186.933 C 237.687 183.990,237.876 181.977,237.088 180.701 C 236.317 179.454,233.119 177.935,232.698 178.615 M112.726 179.557 C 112.404 179.822,102.933 214.490,102.933 215.406 C 102.933 215.589,102.594 215.733,102.162 215.733 C 101.162 215.733,101.000 216.218,101.474 217.791 C 102.645 221.679,103.607 222.062,111.066 221.612 C 114.146 221.427,117.974 221.258,119.571 221.237 C 123.086 221.192,123.295 221.030,122.373 219.069 C 120.734 215.581,119.213 214.990,113.365 215.564 C 111.083 215.788,109.192 215.948,109.164 215.919 C 109.135 215.890,110.962 208.986,113.223 200.577 C 117.651 184.106,117.820 183.194,116.733 181.597 C 115.635 179.983,113.520 178.906,112.726 179.557 M247.810 191.835 C 242.853 193.466,239.158 199.178,237.728 207.421 C 236.639 213.694,234.073 217.350,230.723 217.401 C 228.003 217.442,227.911 215.610,230.260 208.133 C 234.469 194.732,234.384 192.000,229.758 192.000 C 228.544 192.000,229.113 190.444,223.583 208.872 C 221.607 215.457,222.354 219.825,225.738 221.481 C 229.636 223.388,234.960 221.111,237.155 216.600 C 237.823 215.226,238.003 215.196,238.397 216.391 C 240.654 223.229,254.208 224.203,260.379 217.971 L 262.013 216.321 262.478 217.899 C 264.066 223.287,271.633 223.583,275.284 218.400 C 275.613 217.933,275.799 217.838,275.904 218.082 C 278.150 223.286,287.301 223.616,291.556 218.646 C 293.692 216.151,295.036 212.878,297.481 204.217 C 300.491 193.553,300.398 191.265,296.961 191.521 L 295.893 191.600 292.640 201.733 C 288.182 215.621,286.632 218.400,283.348 218.400 C 280.472 218.400,280.581 216.132,284.008 204.667 C 287.241 193.849,287.023 191.467,282.801 191.467 L 281.904 191.467 279.718 198.200 C 278.516 201.903,277.011 206.673,276.373 208.800 C 274.138 216.250,271.629 219.551,269.391 217.984 C 267.144 216.410,267.365 213.235,270.430 203.067 C 273.100 194.207,272.689 191.199,268.851 191.518 L 267.867 191.600 265.796 197.867 C 264.657 201.313,263.301 205.559,262.783 207.300 C 260.689 214.341,258.299 216.834,253.160 217.337 C 247.959 217.846,244.760 216.304,243.997 212.919 L 243.790 212.003 244.895 212.157 C 245.503 212.242,246.161 212.362,246.358 212.423 C 246.555 212.485,247.510 212.409,248.480 212.254 C 258.501 210.653,264.022 193.917,255.157 192.016 C 252.796 191.509,249.077 191.418,247.810 191.835 M195.143 195.197 C 197.389 196.217,197.540 198.755,195.594 202.800 C 193.825 206.477,192.187 207.727,188.848 207.945 L 186.896 208.073 187.081 207.036 C 187.446 204.999,189.651 198.691,190.484 197.301 C 191.943 194.868,193.184 194.308,195.143 195.197 M252.182 195.185 C 255.212 196.560,254.090 202.979,250.225 206.381 C 248.264 208.107,243.821 208.755,244.153 207.267 C 246.241 197.911,249.010 193.744,252.182 195.185 M142.733 196.030 C 143.359 196.784,143.343 199.290,142.697 201.733 C 139.010 215.679,135.947 220.706,133.107 217.472 C 130.944 215.009,131.881 207.754,135.246 200.917 C 137.574 196.187,141.004 193.948,142.733 196.030 M177.364 232.383 C 173.819 233.541,173.467 234.771,173.467 246.000 C 173.467 257.364,173.822 258.552,177.548 259.635 C 182.860 261.179,186.133 258.303,186.133 252.091 L 186.133 249.600 184.133 249.600 L 182.133 249.600 182.133 252.151 C 182.133 255.562,181.173 256.801,179.132 256.025 C 177.621 255.451,177.600 255.310,177.600 245.977 C 177.600 236.448,177.633 236.269,179.450 235.870 C 181.337 235.456,182.133 236.491,182.133 239.355 L 182.133 241.333 184.165 241.333 L 186.197 241.333 186.088 238.839 C 185.855 233.505,182.203 230.803,177.364 232.383 M195.867 232.249 C 193.909 232.726,192.872 233.595,192.021 235.471 C 191.186 237.312,191.186 254.688,192.021 256.529 C 194.226 261.390,202.129 261.111,203.833 256.110 C 204.458 254.277,204.476 238.135,203.856 236.046 C 202.950 232.995,199.513 231.362,195.867 232.249 M97.867 245.989 L 97.867 259.733 100.000 259.733 L 102.133 259.733 102.133 253.867 L 102.133 248.000 104.533 248.000 L 106.933 248.000 106.933 253.867 L 106.933 259.733 109.067 259.733 L 111.200 259.733 111.200 245.989 L 111.200 232.244 109.133 232.322 L 107.067 232.400 106.995 238.200 L 106.923 244.000 104.533 244.000 L 102.144 244.000 102.072 238.200 L 102.000 232.400 99.933 232.322 L 97.867 232.244 97.867 245.989 M118.563 245.267 C 117.421 252.417,116.422 258.597,116.343 259.000 L 116.200 259.733 118.095 259.733 C 120.246 259.733,120.007 260.040,120.547 256.591 L 120.851 254.649 123.552 254.724 L 126.253 254.800 126.621 257.267 L 126.990 259.733 129.126 259.733 C 131.028 259.733,131.249 259.682,131.144 259.267 C 131.078 259.010,130.076 252.830,128.915 245.533 L 126.805 232.267 123.722 232.267 L 120.639 232.267 118.563 245.267 M136.000 246.000 L 136.000 259.733 138.133 259.733 L 140.267 259.733 140.267 246.000 L 140.267 232.267 138.133 232.267 L 136.000 232.267 136.000 246.000 M146.400 245.969 L 146.400 259.733 148.533 259.733 L 150.667 259.733 150.667 254.133 L 150.667 248.533 151.985 248.533 C 152.994 248.533,153.479 248.684,154.052 249.177 L 154.800 249.820 154.935 254.443 C 155.097 259.982,154.980 259.733,157.445 259.733 L 159.392 259.733 159.296 257.200 C 159.243 255.807,159.158 253.555,159.107 252.197 C 158.999 249.315,158.313 247.392,157.216 246.892 C 156.364 246.504,156.358 246.261,157.187 245.717 C 159.158 244.426,159.886 237.978,158.390 235.070 C 157.250 232.856,156.095 232.438,150.754 232.309 L 146.400 232.204 146.400 245.969 M210.133 245.991 L 210.133 259.733 211.867 259.733 L 213.600 259.733 213.621 250.067 C 213.633 244.750,213.702 240.548,213.775 240.730 C 213.849 240.911,214.590 245.231,215.423 250.330 L 216.938 259.600 218.936 259.676 L 220.933 259.752 222.229 251.009 C 222.942 246.201,223.620 241.847,223.736 241.333 C 223.854 240.811,223.958 244.661,223.973 250.067 L 224.000 259.733 226.000 259.733 L 228.000 259.733 228.000 246.000 L 228.000 232.267 225.088 232.267 L 222.176 232.267 222.028 233.000 C 221.947 233.403,221.331 237.453,220.660 242.000 C 219.267 251.429,219.098 252.196,218.812 250.400 C 218.707 249.740,218.000 245.420,217.241 240.800 L 215.860 232.400 212.997 232.324 L 210.133 232.249 210.133 245.991 M234.133 246.000 L 234.133 259.733 236.133 259.733 L 238.133 259.733 238.133 254.533 L 238.133 249.333 239.933 249.332 C 245.254 249.327,246.812 247.194,246.623 240.166 C 246.445 233.503,245.010 232.267,237.454 232.267 L 234.133 232.267 234.133 246.000 M254.807 232.600 C 254.747 232.783,253.789 238.693,252.680 245.733 C 251.570 252.773,250.601 258.803,250.526 259.133 C 250.394 259.714,250.453 259.733,252.395 259.733 C 254.208 259.733,254.400 259.683,254.400 259.211 C 254.400 258.924,254.535 257.784,254.699 256.678 L 254.998 254.667 257.731 254.667 L 260.465 254.667 260.800 257.200 L 261.135 259.733 263.234 259.733 C 264.389 259.733,265.333 259.655,265.333 259.560 C 265.333 259.465,264.373 253.393,263.200 246.067 C 262.027 238.742,261.067 232.640,261.067 232.507 C 261.067 232.114,254.937 232.204,254.807 232.600 M270.400 246.000 L 270.400 259.733 272.263 259.733 L 274.127 259.733 274.197 249.854 L 274.267 239.975 276.927 249.854 L 279.587 259.733 281.796 259.733 L 284.005 259.733 283.936 246.067 L 283.867 232.400 282.067 232.321 L 280.267 232.242 280.263 240.454 C 280.260 244.971,280.158 248.508,280.036 248.315 C 279.913 248.122,278.868 244.432,277.713 240.115 L 275.613 232.267 273.006 232.267 L 270.400 232.267 270.400 246.000 M288.634 232.722 C 288.713 232.985,289.923 237.053,291.322 241.763 L 293.867 250.326 293.867 255.029 L 293.867 259.733 296.000 259.733 L 298.133 259.733 298.133 255.152 L 298.133 250.572 300.800 241.587 C 302.267 236.645,303.467 232.527,303.467 232.434 C 303.467 232.342,302.595 232.267,301.529 232.267 L 299.591 232.267 298.018 238.333 C 297.153 241.670,296.384 244.513,296.309 244.651 C 296.234 244.788,295.433 242.088,294.530 238.651 L 292.887 232.400 290.689 232.322 C 288.681 232.251,288.503 232.286,288.634 232.722 M199.515 236.541 C 200.473 237.693,200.611 253.830,199.676 255.256 C 198.793 256.602,196.561 256.415,195.812 254.933 C 195.331 253.984,195.329 238.021,195.809 237.072 C 196.507 235.693,198.565 235.398,199.515 236.541 M154.333 236.935 C 154.872 237.559,154.933 237.911,154.933 240.400 C 154.933 243.908,154.575 244.474,152.200 244.717 L 150.667 244.875 150.667 240.400 L 150.667 235.925 152.200 236.083 C 153.407 236.206,153.861 236.388,154.333 236.935 M241.933 236.817 C 242.326 237.301,242.400 237.959,242.400 240.944 C 242.400 245.194,242.153 245.600,239.564 245.600 L 238.133 245.600 238.133 240.978 C 238.133 238.436,238.223 236.263,238.333 236.150 C 238.752 235.720,241.449 236.219,241.933 236.817 M125.458 249.800 L 125.650 251.200 123.462 251.200 L 121.274 251.200 121.432 250.333 C 121.518 249.857,121.951 247.007,122.394 244.000 C 122.836 240.993,123.277 238.233,123.372 237.867 C 123.522 237.292,124.537 243.099,125.458 249.800 M258.795 243.940 C 260.018 252.033,260.138 251.200,257.749 251.200 C 255.266 251.200,255.386 251.904,256.562 244.267 C 257.115 240.673,257.585 237.613,257.605 237.467 C 257.689 236.864,257.897 237.997,258.795 243.940 " stroke="none" fill="#fbf9f0" fill-rule="evenodd"></path><path id="path2" d="M118.467 149.250 C 118.723 149.318,119.143 149.318,119.400 149.250 C 119.657 149.183,119.447 149.129,118.933 149.129 C 118.420 149.129,118.210 149.183,118.467 149.250 M48.595 156.267 C 48.595 156.780,48.650 156.990,48.717 156.733 C 48.784 156.477,48.784 156.057,48.717 155.800 C 48.650 155.543,48.595 155.753,48.595 156.267 M145.561 163.801 C 145.695 163.935,146.089 164.001,146.436 163.946 C 146.970 163.862,146.932 163.824,146.192 163.702 C 145.662 163.614,145.413 163.653,145.561 163.801 M70.454 191.144 C 69.665 194.968,65.542 199.014,61.805 199.635 C 60.601 199.835,60.706 200.140,62.064 200.392 C 65.723 201.071,69.420 204.778,70.428 208.779 L 70.859 210.491 71.044 209.260 C 71.612 205.470,75.809 201.094,79.548 200.392 C 80.643 200.187,80.887 199.733,79.902 199.733 C 76.778 199.733,71.988 194.919,71.073 190.859 L 70.781 189.562 70.454 191.144 M328.737 191.365 C 327.658 195.243,324.330 198.566,320.527 199.563 C 319.724 199.774,319.247 200.008,319.467 200.083 C 319.687 200.159,320.453 200.410,321.171 200.640 C 324.831 201.817,327.730 204.915,328.812 208.804 L 329.144 210.000 329.464 208.800 C 330.530 204.795,335.038 200.287,338.000 200.263 C 338.293 200.260,338.713 200.142,338.933 200.000 C 339.240 199.802,339.145 199.741,338.526 199.737 C 335.119 199.720,330.429 195.244,329.474 191.098 L 329.174 189.796 328.737 191.365 M161.929 207.200 C 161.929 207.713,161.983 207.923,162.050 207.667 C 162.118 207.410,162.118 206.990,162.050 206.733 C 161.983 206.477,161.929 206.687,161.929 207.200 M125.662 213.333 C 125.662 213.847,125.717 214.057,125.784 213.800 C 125.851 213.543,125.851 213.123,125.784 212.867 C 125.717 212.610,125.662 212.820,125.662 213.333 M131.795 213.333 C 131.795 213.847,131.850 214.057,131.917 213.800 C 131.984 213.543,131.984 213.123,131.917 212.867 C 131.850 212.610,131.795 212.820,131.795 213.333 M111.324 246.000 C 111.324 253.627,111.358 256.708,111.400 252.848 C 111.442 248.988,111.441 242.748,111.400 238.981 C 111.358 235.215,111.324 238.373,111.324 246.000 M209.991 246.000 C 209.991 253.627,210.025 256.708,210.067 252.848 C 210.108 248.988,210.108 242.748,210.066 238.981 C 210.025 235.215,209.991 238.373,209.991 246.000 M233.991 246.000 C 233.991 253.627,234.025 256.708,234.067 252.848 C 234.108 248.988,234.108 242.748,234.066 238.981 C 234.025 235.215,233.991 238.373,233.991 246.000 M280.119 240.400 C 280.118 244.947,280.155 246.844,280.199 244.617 C 280.244 242.389,280.244 238.669,280.200 236.350 C 280.155 234.031,280.119 235.853,280.119 240.400 M151.133 236.188 C 151.463 236.252,152.003 236.252,152.333 236.188 C 152.663 236.125,152.393 236.073,151.733 236.073 C 151.073 236.073,150.803 236.125,151.133 236.188 M238.252 236.343 C 238.179 236.532,238.156 238.722,238.200 241.210 L 238.280 245.733 238.340 241.015 L 238.400 236.297 239.533 236.195 L 240.667 236.093 239.525 236.047 C 238.804 236.017,238.335 236.126,238.252 236.343 M191.319 246.000 C 191.318 250.547,191.355 252.444,191.399 250.217 C 191.444 247.989,191.444 244.269,191.400 241.950 C 191.355 239.631,191.319 241.453,191.319 246.000 M200.118 246.000 C 200.118 250.253,200.155 251.956,200.200 249.784 C 200.244 247.611,200.244 244.131,200.199 242.050 C 200.154 239.969,200.118 241.747,200.118 246.000 M183.140 241.529 C 183.768 241.585,184.728 241.584,185.274 241.527 C 185.820 241.470,185.307 241.424,184.133 241.425 C 182.960 241.426,182.513 241.473,183.140 241.529 M151.133 244.722 C 151.463 244.785,152.003 244.785,152.333 244.722 C 152.663 244.658,152.393 244.606,151.733 244.606 C 151.073 244.606,150.803 244.658,151.133 244.722 M238.245 254.533 C 238.245 257.467,238.284 258.703,238.332 257.281 C 238.380 255.859,238.380 253.459,238.332 251.948 C 238.285 250.436,238.246 251.600,238.245 254.533 M255.705 251.013 C 255.822 251.129,256.807 251.188,257.893 251.143 L 259.867 251.062 257.679 250.931 C 256.475 250.859,255.587 250.896,255.705 251.013 M122.333 251.129 C 122.957 251.185,123.977 251.185,124.600 251.129 C 125.223 251.072,124.713 251.027,123.467 251.027 C 122.220 251.027,121.710 251.072,122.333 251.129 M203.800 295.117 C 204.057 295.184,204.477 295.184,204.733 295.117 C 204.990 295.050,204.780 294.995,204.267 294.995 C 203.753 294.995,203.543 295.050,203.800 295.117 M205.133 297.250 C 205.390 297.318,205.810 297.318,206.067 297.250 C 206.323 297.183,206.113 297.129,205.600 297.129 C 205.087 297.129,204.877 297.183,205.133 297.250 " stroke="none" fill="#fbd093" fill-rule="evenodd"></path><path id="path3" d="M204.867 102.584 C 205.123 102.651,205.543 102.651,205.800 102.584 C 206.057 102.517,205.847 102.462,205.333 102.462 C 204.820 102.462,204.610 102.517,204.867 102.584 M204.867 104.984 C 205.123 105.051,205.543 105.051,205.800 104.984 C 206.057 104.917,205.847 104.862,205.333 104.862 C 204.820 104.862,204.610 104.917,204.867 104.984 M350.922 132.600 C 352.027 133.777,352.267 133.989,352.267 133.789 C 352.267 133.746,351.697 133.176,351.000 132.522 L 349.733 131.333 350.922 132.600 M262.204 135.925 C 262.609 135.986,263.209 135.984,263.537 135.921 C 263.865 135.858,263.533 135.808,262.800 135.810 C 262.067 135.812,261.798 135.863,262.204 135.925 M343.456 139.000 C 344.561 140.177,344.800 140.389,344.800 140.189 C 344.800 140.146,344.230 139.576,343.533 138.922 L 342.267 137.733 343.456 139.000 M126.067 148.722 C 126.397 148.785,126.937 148.785,127.267 148.722 C 127.597 148.658,127.327 148.606,126.667 148.606 C 126.007 148.606,125.737 148.658,126.067 148.722 M116.467 149.255 C 116.797 149.318,117.337 149.318,117.667 149.255 C 117.997 149.191,117.727 149.139,117.067 149.139 C 116.407 149.139,116.137 149.191,116.467 149.255 M124.600 152.184 C 124.857 152.251,125.277 152.251,125.533 152.184 C 125.790 152.117,125.580 152.062,125.067 152.062 C 124.553 152.062,124.343 152.117,124.600 152.184 M148.333 155.117 C 148.590 155.184,149.010 155.184,149.267 155.117 C 149.523 155.050,149.313 154.995,148.800 154.995 C 148.287 154.995,148.077 155.050,148.333 155.117 M51.013 157.333 C 51.013 158.140,51.063 158.470,51.124 158.067 C 51.185 157.663,51.185 157.003,51.124 156.600 C 51.063 156.197,51.013 156.527,51.013 157.333 M139.534 157.467 C 139.537 158.053,139.591 158.262,139.655 157.930 C 139.719 157.599,139.717 157.119,139.650 156.864 C 139.583 156.609,139.531 156.880,139.534 157.467 M153.667 158.800 C 153.670 159.387,153.725 159.595,153.789 159.264 C 153.852 158.932,153.850 158.452,153.783 158.197 C 153.716 157.942,153.664 158.213,153.667 158.800 M48.663 201.600 C 48.663 225.287,48.695 234.977,48.733 223.133 C 48.772 211.290,48.772 191.910,48.733 180.067 C 48.695 168.223,48.663 177.913,48.663 201.600 M351.330 201.600 C 351.330 225.140,351.362 234.770,351.400 223.000 C 351.438 211.230,351.438 191.970,351.400 180.200 C 351.362 168.430,351.330 178.060,351.330 201.600 M328.952 189.752 C 328.854 190.143,328.825 190.514,328.888 190.577 C 328.951 190.640,329.083 190.372,329.181 189.981 C 329.279 189.590,329.308 189.219,329.245 189.156 C 329.182 189.093,329.050 189.362,328.952 189.752 M243.317 194.467 L 242.533 195.333 243.400 194.550 C 244.208 193.820,244.389 193.600,244.183 193.600 C 244.137 193.600,243.747 193.990,243.317 194.467 M176.067 196.400 C 176.070 196.987,176.125 197.195,176.189 196.864 C 176.252 196.532,176.250 196.052,176.183 195.797 C 176.116 195.542,176.064 195.813,176.067 196.400 M331.733 195.817 C 331.733 195.863,332.123 196.253,332.600 196.683 L 333.467 197.467 332.683 196.600 C 331.953 195.792,331.733 195.611,331.733 195.817 M253.929 198.133 C 253.929 198.647,253.983 198.857,254.050 198.600 C 254.118 198.343,254.118 197.923,254.050 197.667 C 253.983 197.410,253.929 197.620,253.929 198.133 M338.933 200.000 C 338.602 200.214,338.625 200.258,339.067 200.258 C 339.360 200.258,339.780 200.142,340.000 200.000 C 340.331 199.786,340.308 199.742,339.867 199.742 C 339.573 199.742,339.153 199.858,338.933 200.000 M166.783 201.133 L 166.000 202.000 166.867 201.217 C 167.343 200.786,167.733 200.396,167.733 200.350 C 167.733 200.144,167.513 200.325,166.783 201.133 M186.933 207.793 C 186.933 207.907,187.623 207.986,188.467 207.969 C 190.094 207.936,189.935 207.818,188.067 207.674 C 187.443 207.625,186.933 207.679,186.933 207.793 M244.867 207.924 C 245.270 207.985,245.930 207.985,246.333 207.924 C 246.737 207.863,246.407 207.813,245.600 207.813 C 244.793 207.813,244.463 207.863,244.867 207.924 M328.823 209.600 C 328.831 209.820,328.941 210.240,329.067 210.533 L 329.296 211.067 329.311 210.533 C 329.319 210.240,329.209 209.820,329.067 209.600 C 328.837 209.244,328.810 209.244,328.823 209.600 M169.867 215.283 C 169.867 215.329,170.257 215.719,170.733 216.150 L 171.600 216.933 170.817 216.067 C 170.087 215.259,169.867 215.077,169.867 215.283 M283.000 218.317 C 283.257 218.384,283.677 218.384,283.933 218.317 C 284.190 218.250,283.980 218.195,283.467 218.195 C 282.953 218.195,282.743 218.250,283.000 218.317 M234.919 219.667 L 234.000 220.667 235.000 219.748 C 235.931 218.892,236.123 218.667,235.919 218.667 C 235.874 218.667,235.424 219.117,234.919 219.667 M290.783 219.533 L 290.000 220.400 290.867 219.617 C 291.675 218.887,291.856 218.667,291.650 218.667 C 291.604 218.667,291.214 219.057,290.783 219.533 M113.933 221.517 C 114.190 221.584,114.610 221.584,114.867 221.517 C 115.123 221.450,114.913 221.395,114.400 221.395 C 113.887 221.395,113.677 221.450,113.933 221.517 M110.200 221.784 C 110.457 221.851,110.877 221.851,111.133 221.784 C 111.390 221.717,111.180 221.662,110.667 221.662 C 110.153 221.662,109.943 221.717,110.200 221.784 M144.738 222.327 C 145.217 222.386,145.937 222.385,146.338 222.324 C 146.739 222.263,146.347 222.214,145.467 222.216 C 144.587 222.217,144.259 222.267,144.738 222.327 M170.737 222.325 C 171.142 222.386,171.742 222.384,172.070 222.321 C 172.398 222.258,172.067 222.208,171.333 222.210 C 170.600 222.212,170.332 222.263,170.737 222.325 M191.127 222.326 C 191.601 222.385,192.441 222.386,192.994 222.328 C 193.547 222.270,193.160 222.222,192.133 222.221 C 191.107 222.220,190.654 222.267,191.127 222.326 M228.070 222.325 C 228.476 222.386,229.076 222.384,229.404 222.321 C 229.732 222.258,229.400 222.208,228.667 222.210 C 227.933 222.212,227.665 222.263,228.070 222.325 M248.194 222.326 C 248.667 222.385,249.507 222.386,250.061 222.328 C 250.614 222.270,250.227 222.222,249.200 222.221 C 248.173 222.220,247.721 222.267,248.194 222.326 M282.600 222.326 C 283.077 222.385,283.857 222.385,284.333 222.326 C 284.810 222.267,284.420 222.219,283.467 222.219 C 282.513 222.219,282.123 222.267,282.600 222.326 M97.724 246.000 C 97.724 253.627,97.758 256.708,97.800 252.848 C 97.842 248.988,97.841 242.748,97.800 238.981 C 97.758 235.215,97.724 238.373,97.724 246.000 M140.391 246.000 C 140.391 253.627,140.425 256.708,140.467 252.848 C 140.508 248.988,140.508 242.748,140.466 238.981 C 140.425 235.215,140.391 238.373,140.391 246.000 M146.257 246.000 C 146.257 253.627,146.292 256.708,146.333 252.848 C 146.375 248.988,146.375 242.748,146.333 238.981 C 146.291 235.215,146.257 238.373,146.257 246.000 M270.257 246.000 C 270.257 253.627,270.292 256.708,270.333 252.848 C 270.375 248.988,270.375 242.748,270.333 238.981 C 270.291 235.215,270.257 238.373,270.257 246.000 M177.719 246.000 C 177.719 250.693,177.755 252.576,177.800 250.183 C 177.844 247.791,177.844 243.951,177.799 241.650 C 177.755 239.349,177.719 241.307,177.719 246.000 M204.386 246.000 C 204.386 250.693,204.422 252.576,204.466 250.183 C 204.511 247.791,204.510 243.951,204.466 241.650 C 204.422 239.349,204.386 241.307,204.386 246.000 M186.221 239.867 C 186.222 240.893,186.270 241.281,186.328 240.727 C 186.386 240.174,186.385 239.334,186.326 238.861 C 186.267 238.387,186.220 238.840,186.221 239.867 M195.585 246.000 C 195.585 250.400,195.621 252.237,195.666 250.083 C 195.711 247.929,195.711 244.329,195.666 242.083 C 195.622 239.837,195.585 241.600,195.585 246.000 M246.765 240.800 C 246.765 242.340,246.809 242.970,246.863 242.200 C 246.917 241.430,246.917 240.170,246.863 239.400 C 246.809 238.630,246.765 239.260,246.765 240.800 M213.682 250.400 L 213.719 259.867 213.859 251.067 C 213.937 246.227,213.920 241.967,213.823 241.600 C 213.726 241.233,213.662 245.193,213.682 250.400 M51.001 243.600 C 51.004 244.187,51.058 244.395,51.122 244.064 C 51.186 243.732,51.183 243.252,51.117 242.997 C 51.050 242.742,50.998 243.013,51.001 243.600 M348.867 243.600 C 348.870 244.187,348.925 244.395,348.989 244.064 C 349.052 243.732,349.050 243.252,348.983 242.997 C 348.916 242.742,348.864 243.013,348.867 243.600 M359.262 244.000 C 359.262 244.513,359.317 244.723,359.384 244.467 C 359.451 244.210,359.451 243.790,359.384 243.533 C 359.317 243.277,359.262 243.487,359.262 244.000 M239.004 245.525 C 239.409 245.586,240.009 245.584,240.337 245.521 C 240.665 245.458,240.333 245.408,239.600 245.410 C 238.867 245.412,238.598 245.463,239.004 245.525 M184.122 249.526 L 186.112 249.622 186.206 251.678 L 186.299 253.733 186.283 251.600 L 186.267 249.467 184.199 249.449 L 182.132 249.431 184.122 249.526 M239.000 249.524 C 239.403 249.585,240.063 249.585,240.467 249.524 C 240.870 249.463,240.540 249.413,239.733 249.413 C 238.927 249.413,238.597 249.463,239.000 249.524 M298.244 255.067 C 298.244 257.707,298.284 258.751,298.332 257.387 C 298.381 256.022,298.380 253.862,298.332 252.587 C 298.283 251.311,298.243 252.427,298.244 255.067 M122.067 254.863 C 122.837 254.917,124.097 254.917,124.867 254.863 C 125.637 254.809,125.007 254.765,123.467 254.765 C 121.927 254.765,121.297 254.809,122.067 254.863 M255.113 254.857 C 255.041 254.972,256.129 255.028,257.530 254.981 C 259.419 254.917,260.142 254.986,260.326 255.247 C 260.521 255.525,260.551 255.515,260.465 255.200 C 260.347 254.763,255.370 254.444,255.113 254.857 M159.262 257.600 C 159.262 258.113,159.317 258.323,159.384 258.067 C 159.451 257.810,159.451 257.390,159.384 257.133 C 159.317 256.877,159.262 257.087,159.262 257.600 M57.856 259.000 C 58.509 259.697,59.079 260.267,59.122 260.267 C 59.322 260.267,59.111 260.027,57.933 258.922 L 56.667 257.733 57.856 259.000 M341.983 259.000 L 341.200 259.867 342.067 259.083 C 342.875 258.353,343.056 258.133,342.850 258.133 C 342.804 258.133,342.414 258.523,341.983 259.000 M197.279 295.132 C 198.496 295.181,200.416 295.181,201.546 295.131 C 202.676 295.081,201.680 295.041,199.333 295.041 C 196.987 295.042,196.062 295.082,197.279 295.132 M198.877 297.531 C 199.800 297.583,201.240 297.583,202.077 297.530 C 202.915 297.477,202.160 297.435,200.400 297.435 C 198.640 297.436,197.955 297.479,198.877 297.531 M196.604 307.125 C 197.009 307.186,197.609 307.184,197.937 307.121 C 198.265 307.058,197.933 307.008,197.200 307.010 C 196.467 307.012,196.198 307.063,196.604 307.125 " stroke="none" fill="#ea9386" fill-rule="evenodd"></path><path id="path4" d="M195.867 124.115 C 193.882 124.950,193.427 124.557,208.074 134.669 C 221.471 143.919,223.707 145.535,230.232 150.688 C 232.011 152.093,236.587 155.680,240.400 158.659 L 247.333 164.076 247.239 166.262 C 246.755 177.456,259.137 183.436,263.648 174.187 C 266.934 167.451,259.702 159.260,251.800 160.769 C 250.810 160.958,249.810 161.128,249.577 161.147 C 249.345 161.166,246.203 158.725,242.595 155.724 L 236.035 150.267 236.204 148.400 C 236.504 145.082,236.722 145.467,233.467 143.579 C 229.896 141.509,230.409 141.477,228.748 143.867 C 227.496 145.667,226.667 146.352,226.667 145.586 C 226.667 145.431,227.329 144.410,228.138 143.316 L 229.609 141.326 228.937 141.020 C 228.567 140.851,228.225 140.763,228.177 140.823 C 228.128 140.884,227.518 141.743,226.821 142.733 C 226.124 143.723,225.384 144.533,225.177 144.533 C 224.618 144.533,224.676 144.399,226.181 142.222 C 227.297 140.609,227.489 140.178,227.181 139.983 C 226.467 139.531,226.161 139.733,224.923 141.467 C 224.243 142.420,223.584 143.200,223.459 143.200 C 222.863 143.200,223.077 142.632,224.303 140.962 C 225.036 139.964,225.598 139.115,225.551 139.076 C 224.571 138.257,224.318 138.384,223.039 140.334 C 222.343 141.397,221.732 142.319,221.682 142.382 C 221.632 142.446,221.460 142.367,221.300 142.207 C 221.090 141.997,221.350 141.389,222.238 140.016 C 223.662 137.815,223.618 137.966,222.940 137.603 C 222.472 137.353,222.271 137.533,221.167 139.194 C 220.482 140.224,219.826 141.067,219.710 141.067 C 219.138 141.067,219.327 140.471,220.412 138.854 C 221.788 136.803,221.760 136.904,221.063 136.531 C 220.584 136.275,220.408 136.430,219.414 137.989 C 218.803 138.948,218.211 139.733,218.100 139.733 C 217.541 139.733,217.708 139.115,218.672 137.625 C 219.906 135.715,219.876 135.829,219.233 135.484 C 218.804 135.255,218.572 135.445,217.616 136.808 C 217.002 137.684,216.327 138.400,216.116 138.400 C 215.527 138.400,215.643 138.080,216.831 136.421 C 217.596 135.352,217.844 134.804,217.649 134.609 C 217.195 134.155,216.654 134.540,215.721 135.979 C 215.238 136.724,214.751 137.333,214.637 137.333 C 214.066 137.333,214.233 136.705,215.180 135.296 C 215.910 134.211,216.132 133.680,215.913 133.541 C 215.369 133.194,215.228 133.300,214.232 134.800 C 213.696 135.607,213.155 136.267,213.029 136.267 C 212.571 136.267,212.818 135.404,213.600 134.267 C 214.503 132.954,214.569 132.655,214.005 132.439 C 213.739 132.337,213.387 132.668,212.926 133.454 C 212.120 134.831,211.586 135.341,211.350 134.961 C 211.260 134.815,211.558 134.092,212.013 133.354 C 212.810 132.058,212.861 131.467,212.174 131.467 C 211.993 131.467,211.495 132.067,211.067 132.800 C 210.638 133.533,210.213 134.133,210.122 134.133 C 209.604 134.133,209.689 133.619,210.423 132.319 C 211.074 131.164,211.172 130.813,210.890 130.634 C 210.337 130.283,210.293 130.316,209.455 131.728 C 209.021 132.458,208.517 133.058,208.333 133.061 C 207.814 133.070,207.934 132.566,208.782 131.189 C 209.211 130.490,209.491 129.847,209.404 129.759 C 208.996 129.352,208.461 129.699,207.795 130.800 C 207.397 131.460,206.920 132.000,206.735 132.000 C 206.234 132.000,206.325 131.575,207.086 130.370 C 208.311 128.428,207.501 127.869,206.162 129.733 C 205.688 130.393,205.188 130.933,205.050 130.933 C 204.581 130.933,204.799 130.215,205.606 129.101 C 206.308 128.132,206.355 127.966,205.968 127.817 C 205.675 127.705,205.361 127.866,205.047 128.290 C 203.793 129.985,203.773 130.003,203.479 129.714 C 203.271 129.509,203.423 129.105,204.021 128.280 C 204.677 127.374,204.777 127.083,204.493 126.903 C 203.935 126.549,203.855 126.596,203.067 127.733 C 202.660 128.320,202.164 128.800,201.964 128.800 C 201.423 128.800,201.514 128.489,202.412 127.268 L 203.223 126.165 202.643 125.854 C 202.125 125.577,201.958 125.666,201.078 126.688 C 199.863 128.098,199.295 127.691,200.420 126.216 C 201.122 125.296,201.132 125.241,200.659 124.895 C 199.980 124.399,199.965 124.406,199.101 125.627 C 198.121 127.011,197.500 126.656,198.388 125.220 C 199.172 123.951,198.414 123.452,197.481 124.622 C 196.878 125.378,196.267 125.562,196.267 124.987 C 196.267 124.796,196.409 124.498,196.582 124.324 C 197.070 123.837,196.750 123.743,195.867 124.115 M233.429 145.967 C 235.272 146.737,235.211 149.172,233.331 149.827 C 230.792 150.713,229.335 147.159,231.739 145.943 C 232.549 145.532,232.382 145.530,233.429 145.967 M232.053 147.253 C 231.397 147.910,232.043 148.971,232.900 148.643 C 233.456 148.429,233.464 147.307,232.912 147.095 C 232.374 146.889,232.427 146.879,232.053 147.253 M256.706 164.133 C 260.010 165.607,262.324 169.764,261.604 172.933 C 260.542 177.608,252.217 175.507,250.174 170.048 C 248.172 164.696,251.405 161.767,256.706 164.133 " stroke="none" fill="#9d2d1d" fill-rule="evenodd"></path></g></svg>